<svg xmlns="http://www.w3.org/2000/svg" xmlns:xlink="http://www.w3.org/1999/xlink" viewBox="0 0 100 100"><path fill="#fefdef" d="M22,70.217C22,77,22,83,18,87c6.709,0,15-2,20.18-9.376C41.916,78.518,45.885,79,50,79c22.091,0,40-13.879,40-31S72.091,17,50,17S10,30.879,10,48c0,8.671,4.595,16.514,12,22.141V70.217z"/><path fill="#1f212b" d="M18,88c-0.404,0-0.769-0.243-0.924-0.617s-0.069-0.804,0.217-1.09c3.63-3.63,3.706-9.199,3.707-15.66C13.257,64.594,9,56.573,9,48c0-17.645,18.393-32,41-32s41,14.355,41,32S72.607,80,50,80c-3.879,0-7.711-0.421-11.4-1.252C32.585,86.781,23.156,88,18,88z M50,18c-21.505,0-39,13.458-39,30c0,8.078,4.122,15.658,11.605,21.345C22.854,69.533,23,69.828,23,70.141v0.077c0,5.901,0,11.519-2.823,15.706c5.067-0.356,12.451-2.135,17.184-8.874c0.236-0.335,0.652-0.492,1.051-0.398C42.149,77.546,46.048,78,50,78c21.505,0,39-13.458,39-30S71.505,18,50,18z"/><path fill="#1f212b" d="M20.298,63c-0.139,0-0.277-0.058-0.375-0.17C16.048,58.423,14,53.295,14,48c0-14.888,16.149-27,36-27c9.38,0,18.264,2.697,25.016,7.596c0.224,0.162,0.273,0.475,0.111,0.698s-0.477,0.272-0.698,0.11C67.846,24.63,59.17,22,50,22c-19.299,0-35,11.663-35,26c0,5.048,1.962,9.947,5.674,14.17c0.182,0.207,0.162,0.523-0.045,0.706C20.534,62.959,20.416,63,20.298,63z"/><path fill="#1f212b" d="M50,75c-1.184,0-2.374-0.044-3.537-0.129c-0.275-0.021-0.482-0.261-0.462-0.536s0.257-0.492,0.535-0.462C47.675,73.957,48.84,74,50,74c19.299,0,35-11.663,35-26c0-4.445-1.546-8.836-4.471-12.698c-0.167-0.22-0.124-0.533,0.097-0.7s0.534-0.124,0.7,0.097C84.384,38.735,86,43.335,86,48C86,62.888,69.851,75,50,75z"/><path fill="#1f212b" d="M79.702,34c-0.139,0-0.277-0.058-0.375-0.17c-0.292-0.333-0.595-0.66-0.907-0.981c-0.193-0.198-0.188-0.515,0.01-0.707c0.198-0.193,0.516-0.188,0.707,0.01c0.324,0.333,0.638,0.674,0.941,1.019c0.182,0.207,0.162,0.523-0.045,0.706C79.937,33.959,79.819,34,79.702,34z"/><path fill="#1f212b" d="M77.212,31.5c-0.119,0-0.238-0.042-0.333-0.127c-0.229-0.204-0.462-0.406-0.7-0.604c-0.212-0.178-0.24-0.493-0.062-0.704c0.176-0.213,0.492-0.24,0.704-0.063c0.246,0.206,0.487,0.414,0.724,0.626c0.206,0.184,0.224,0.5,0.04,0.706C77.486,31.443,77.349,31.5,77.212,31.5z"/><path fill="#1f212b" d="M41,35.635c0-1.06,0.781-2.098,2.343-3.114C44.904,31.508,46.886,31,49.286,31c3.011,0,5.383,0.738,7.116,2.217C58.133,34.694,59,36.576,59,38.86c0,0.945-0.144,1.851-0.432,2.719c-0.289,0.868-0.704,1.661-1.248,2.377c-0.544,0.716-1.033,1.309-1.465,1.782c-0.432,0.471-0.976,0.989-1.632,1.554s-1.048,0.906-1.173,1.028c-0.947,0.823-1.531,1.661-1.753,2.513c-0.221,0.854-0.33,2.149-0.33,3.884c0,0.945-0.737,1.418-2.207,1.418c-0.736,0-1.261-0.154-1.576-0.459c-0.315-0.305-0.473-0.854-0.473-1.649c0-3.48,0.93-5.984,2.79-7.51c0.206-0.184,0.646-0.518,1.318-1.007c0.672-0.488,1.173-0.892,1.502-1.214c0.329-0.32,0.713-0.749,1.153-1.283c0.439-0.534,0.76-1.113,0.964-1.74c0.204-0.625,0.307-1.289,0.307-1.993c0-1.465-0.497-2.602-1.49-3.411c-0.993-0.809-2.369-1.214-4.127-1.214c-1.02,0-1.888,0.148-2.606,0.443c-0.717,0.295-1.219,0.629-1.506,1.001c-0.287,0.374-0.605,0.708-0.956,1.003c-0.351,0.295-0.718,0.443-1.1,0.443c-0.478,0-0.925-0.172-1.339-0.514C41.207,36.693,41,36.226,41,35.635z M45.995,62.485c0-0.698,0.271-1.291,0.812-1.778c0.542-0.49,1.211-0.734,2.007-0.734c0.818,0,1.524,0.245,2.121,0.734c0.596,0.488,0.894,1.08,0.894,1.778c0,0.672-0.298,1.258-0.894,1.76C50.337,64.749,49.631,65,48.813,65c-0.796,0-1.465-0.251-2.007-0.755C46.265,63.744,45.995,63.157,45.995,62.485z"/></svg>