<svg xmlns="http://www.w3.org/2000/svg" xmlns:xlink="http://www.w3.org/1999/xlink" viewBox="0 0 100 100"><path fill="#a2a2cc" d="M81.002,39.529c-0.878,0-1.725,0.134-2.535,0.365c-0.531-6.881-5.955-12.293-12.58-12.293c-3.82,0-7.235,1.805-9.552,4.646c-2.828-6.05-8.694-10.219-15.493-10.219c-9.369,0-16.979,7.902-17.273,17.762c-0.695-0.166-1.415-0.262-2.157-0.262c-5.39,0-9.759,4.634-9.759,10.349s4.369,10.349,9.759,10.349c0.627,0,58.963,0,59.59,0c5.39,0,9.759-4.634,9.759-10.349S86.392,39.529,81.002,39.529z"/><path fill="#1f212b" d="M81.002,61.228c-0.013,0-0.027,0-0.042,0h-0.046c-0.552,0-1-0.447-1-1s0.448-1,1-1c4.917,0,8.847-4.194,8.847-9.35s-3.929-9.35-8.759-9.35c-0.738,0-1.499,0.11-2.261,0.327c-0.29,0.081-0.6,0.029-0.845-0.142c-0.247-0.171-0.403-0.444-0.426-0.743c-0.492-6.375-5.58-11.369-11.583-11.369c-3.361,0-6.561,1.56-8.777,4.278c-0.217,0.267-0.555,0.399-0.898,0.36c-0.341-0.042-0.637-0.257-0.783-0.568c-2.781-5.948-8.37-9.644-14.587-9.644c-8.845,0-15.993,7.376-16.273,16.793c-0.009,0.301-0.153,0.581-0.392,0.765c-0.239,0.183-0.546,0.249-0.841,0.178c-5.641-1.358-10.683,3.289-10.683,9.114c0,5.155,3.929,9.35,8.759,9.35h0.548c0.552,0,1,0.447,1,1s-0.448,1-1,1h-0.548c-5.933,0-10.759-5.092-10.759-11.35c0-6.684,5.534-12.081,11.983-11.272c0.844-9.946,8.641-17.577,18.207-17.577c6.527,0,12.431,3.596,15.723,9.479c2.518-2.498,5.842-3.905,9.321-3.905c6.675,0,12.381,5.216,13.444,12.071c0.561-0.097,1.12-0.145,1.67-0.145c5.933,0,10.759,5.092,10.759,11.35S86.935,61.228,81.002,61.228z"/><path fill="#1f212b" d="M65.461 59.228h-5c-.276 0-.5-.224-.5-.5s.224-.5.5-.5h5c.276 0 .5.224.5.5S65.737 59.228 65.461 59.228zM58.461 59.228c-.07 0-.13-.01-.19-.04-.06-.021-.12-.061-.16-.11-.1-.09-.15-.21-.15-.35 0-.13.05-.26.15-.351.18-.189.52-.189.7 0 .1.091.15.221.15.351 0 .14-.05.26-.15.35-.04.05-.1.09-.16.11C58.591 59.219 58.53 59.228 58.461 59.228zM56.461 59.228h-30c-.276 0-.5-.224-.5-.5s.224-.5.5-.5h30c.276 0 .5.224.5.5S56.737 59.228 56.461 59.228zM76.961 65.228h-48c-.552 0-1-.447-1-1s.448-1 1-1h48c.552 0 1 .447 1 1S77.513 65.228 76.961 65.228zM62.961 75.228h-38c-.552 0-1-.447-1-1s.448-1 1-1h38c.552 0 1 .447 1 1S63.513 75.228 62.961 75.228zM69.461 70.228h-1c-.276 0-.5-.224-.5-.5s.224-.5.5-.5h1c.276 0 .5.224.5.5S69.737 70.228 69.461 70.228zM66.461 70.228h-29c-.276 0-.5-.224-.5-.5s.224-.5.5-.5h29c.276 0 .5.224.5.5S66.737 70.228 66.461 70.228z"/></svg>