<svg xmlns="http://www.w3.org/2000/svg" xmlns:xlink="http://www.w3.org/1999/xlink" viewBox="0 0 100 100"><path fill="#fdf5a9" d="M60.209 32.083A19.674 19.674 0 1 0 60.209 71.431A19.674 19.674 0 1 0 60.209 32.083Z"/><path fill="#8eb4da" d="M79.002,61.529c-0.878,0-1.725,0.134-2.535,0.365c-0.531-6.881-5.955-12.293-12.58-12.293c-3.82,0-7.235,1.805-9.552,4.646c-2.828-6.05-8.694-10.219-15.493-10.219c-9.369,0-16.979,7.902-17.273,17.762c-0.695-0.166-1.415-0.262-2.157-0.262c-5.39,0-9.759,4.634-9.759,10.349c0,5.716,4.369,10.35,9.759,10.35c0.627,0,58.963,0,59.59,0c5.39,0,9.759-4.634,9.759-10.35C88.762,66.163,84.392,61.529,79.002,61.529z"/><path fill="#1f212b" d="M79.002,83.228H19.413c-5.933,0-10.759-5.092-10.759-11.35s4.827-11.35,10.759-11.35c0.404,0,0.812,0.025,1.224,0.077c0.843-9.946,8.641-17.577,18.206-17.577c6.528,0,12.432,3.596,15.724,9.479c2.518-2.498,5.842-3.905,9.321-3.905c6.675,0,12.381,5.216,13.444,12.071c0.561-0.097,1.12-0.145,1.67-0.145c5.933,0,10.759,5.092,10.759,11.35S84.935,83.228,79.002,83.228z M19.413,62.529c-4.83,0-8.759,4.194-8.759,9.35s3.929,9.35,8.759,9.35h59.589c4.83,0,8.759-4.194,8.759-9.35s-3.929-9.35-8.759-9.35c-0.738,0-1.499,0.11-2.261,0.327c-0.29,0.081-0.599,0.03-0.845-0.142c-0.247-0.171-0.403-0.444-0.426-0.743c-0.492-6.375-5.58-11.369-11.583-11.369c-3.361,0-6.561,1.56-8.777,4.278c-0.217,0.266-0.554,0.401-0.898,0.36c-0.341-0.042-0.637-0.257-0.783-0.568c-2.781-5.948-8.37-9.644-14.587-9.644c-8.844,0-15.992,7.376-16.273,16.793c-0.009,0.301-0.153,0.581-0.392,0.765c-0.239,0.183-0.547,0.25-0.841,0.178C20.688,62.608,20.04,62.529,19.413,62.529z"/><path fill="#1f212b" d="M79.482 57.317c-.066 0-.134-.007-.202-.021-.541-.11-.89-.639-.779-1.181.253-1.235.381-2.509.381-3.784 0-10.354-8.423-18.777-18.777-18.777-6.041 0-11.75 2.936-15.274 7.853-.322.448-.947.553-1.396.23-.449-.321-.552-.946-.23-1.395 3.898-5.44 10.216-8.688 16.9-8.688 11.457 0 20.777 9.32 20.777 20.777 0 1.41-.142 2.818-.422 4.187C80.364 56.991 79.947 57.317 79.482 57.317zM59.654 30.228c-.552 0-1-.447-1-1v-7c0-.553.448-1 1-1s1 .447 1 1v7C60.654 29.781 60.206 30.228 59.654 30.228zM89.654 54.228h-6c-.552 0-1-.447-1-1s.448-1 1-1h6c.552 0 1 .447 1 1S90.206 54.228 89.654 54.228z"/><path fill="#1f212b" d="M76.183 37.045c-.256 0-.512-.098-.707-.293-.391-.391-.391-1.023 0-1.414l4.652-4.652c.391-.391 1.023-.391 1.414 0s.391 1.023 0 1.414l-4.652 4.652C76.695 36.947 76.439 37.045 76.183 37.045zM42.888 36.823c-.256 0-.512-.098-.707-.293l-4.707-4.706c-.391-.391-.391-1.023 0-1.414s1.023-.391 1.414 0l4.707 4.706c.391.391.391 1.023 0 1.414C43.4 36.725 43.144 36.823 42.888 36.823zM70.052 40.764c-.112 0-.224-.037-.317-.114-.327-.27-.666-.526-1.015-.769-.227-.157-.284-.469-.126-.696.157-.227.468-.283.696-.126.373.258.733.532 1.082.819.213.176.244.49.068.704C70.34 40.702 70.197 40.764 70.052 40.764zM48.039 42.885c-.112 0-.225-.037-.318-.114-.213-.176-.243-.491-.067-.704 3.08-3.731 7.619-5.872 12.453-5.872 2.674 0 5.323.667 7.66 1.931.243.131.333.435.202.677-.131.243-.435.333-.678.202-2.191-1.184-4.676-1.81-7.185-1.81-4.535 0-8.792 2.008-11.681 5.509C48.326 42.823 48.183 42.885 48.039 42.885zM57.154 78.228h-5c-.276 0-.5-.224-.5-.5s.224-.5.5-.5h5c.276 0 .5.224.5.5S57.43 78.228 57.154 78.228zM50.154 78.228h-1c-.276 0-.5-.224-.5-.5s.224-.5.5-.5h1c.276 0 .5.224.5.5S50.43 78.228 50.154 78.228zM47.154 78.228h-29c-.276 0-.5-.224-.5-.5s.224-.5.5-.5h29c.276 0 .5.224.5.5S47.43 78.228 47.154 78.228z"/></svg>