<svg xmlns="http://www.w3.org/2000/svg" xmlns:xlink="http://www.w3.org/1999/xlink" viewBox="0 0 100 100"><path fill="#b2b1c2" d="M79.589,42.838c-0.878,0-1.725,0.134-2.535,0.365c-0.531-6.881-5.955-12.293-12.58-12.293c-3.82,0-7.235,1.805-9.552,4.646c-2.828-6.05-8.694-10.219-15.493-10.219c-9.369,0-16.979,7.902-17.273,17.762c-0.695-0.166-1.415-0.262-2.157-0.262c-5.39,0-9.759,4.634-9.759,10.349s4.369,10.349,9.759,10.349c0.627,0,58.963,0,59.59,0c5.39,0,9.759-4.634,9.759-10.349S84.979,42.838,79.589,42.838z"/><path fill="#1f212b" d="M79.589 64.228h-9.321c-.553 0-1-.447-1-1s.447-1 1-1h9.246c4.905 0 8.834-4.194 8.834-9.35s-3.929-9.35-8.759-9.35c-.738 0-1.499.11-2.262.327-.288.081-.6.03-.845-.142-.246-.171-.402-.444-.426-.743-.491-6.376-5.579-11.37-11.583-11.37-3.36 0-6.56 1.56-8.776 4.278-.218.267-.561.4-.898.36-.342-.042-.637-.257-.783-.568-2.78-5.948-8.369-9.643-14.587-9.643-8.845 0-15.992 7.376-16.272 16.792-.01.301-.153.581-.393.764-.238.183-.544.25-.84.179-5.664-1.354-10.684 3.291-10.684 9.115 0 5.155 3.929 9.35 8.759 9.35h13.269c.553 0 1 .447 1 1s-.447 1-1 1H20.083c-6.017 0-10.843-5.092-10.843-11.35 0-6.684 5.518-12.091 11.982-11.272.843-9.946 8.64-17.577 18.206-17.577 6.528 0 12.432 3.596 15.724 9.478 2.519-2.498 5.843-3.905 9.321-3.905 6.676 0 12.382 5.216 13.444 12.072.562-.097 1.12-.145 1.671-.145 5.933 0 10.759 5.092 10.759 11.35S85.522 64.228 79.589 64.228zM67.152 79.186c-.212 0-.408-.136-.477-.348l-.819-2.562c-.084-.263.062-.545.324-.629.263-.08.544.062.629.324l.819 2.562c.084.263-.062.545-.324.629C67.254 79.179 67.203 79.186 67.152 79.186zM65.737 75.009c-.07 0-.13-.011-.189-.04-.061-.021-.12-.061-.171-.101-.09-.1-.14-.22-.14-.359 0-.061.01-.131.04-.19.021-.06.06-.11.1-.16.051-.05.11-.08.171-.11.18-.069.399-.029.539.11.051.04.091.101.11.16.03.06.04.13.04.19 0 .069-.01.13-.04.189-.02.061-.06.12-.11.17-.05.04-.1.08-.159.101C65.867 74.998 65.798 75.009 65.737 75.009z"/><path fill="#1f212b" d="M65.088 72.751c-.212 0-.408-.136-.477-.348l-4.994-15.625c-.084-.263.062-.545.324-.629.263-.081.544.062.629.324l4.994 15.625c.084.263-.062.545-.324.629C65.19 72.743 65.139 72.751 65.088 72.751zM59.792 84.833c-.212 0-.408-.136-.477-.348l-3.646-11.411c-.084-.264.062-.545.324-.629.263-.082.544.062.629.324l3.646 11.411c.084.264-.062.545-.324.629C59.894 84.825 59.843 84.833 59.792 84.833zM55.109 70.179c-.212 0-.408-.136-.477-.348l-3.121-9.766c-.084-.263.062-.545.324-.629.261-.082.544.062.629.324l3.121 9.766c.084.263-.062.545-.324.629C55.21 70.171 55.159 70.179 55.109 70.179zM43.762 80.143c-.212 0-.408-.136-.477-.348l-3.554-11.117c-.084-.263.062-.545.324-.629.262-.082.544.062.629.324l3.554 11.117c.084.263-.062.545-.324.629C43.863 80.136 43.813 80.143 43.762 80.143zM39.452 66.662c-.212 0-.408-.136-.477-.348l-1.913-5.986c-.084-.263.062-.545.324-.629.261-.082.544.062.629.324l1.913 5.986c.084.263-.062.545-.324.629C39.554 66.654 39.503 66.662 39.452 66.662zM51.997 83.792c-.205 0-.397-.127-.471-.332l-.869-2.43c-.093-.26.042-.546.303-.639.261-.092.546.042.639.303l.869 2.43c.093.26-.042.546-.303.639C52.11 83.782 52.053 83.792 51.997 83.792zM50.462 79.186c-.212 0-.408-.136-.477-.348l-4.749-14.856c-.084-.263.062-.545.324-.629.261-.081.544.062.629.324l4.749 14.856c.084.263-.062.545-.324.629C50.564 79.179 50.513 79.186 50.462 79.186zM55.638 71.759c-.13 0-.25-.051-.351-.15-.09-.09-.149-.22-.149-.35 0-.131.06-.261.149-.351.05-.05.101-.09.16-.11.13-.05.26-.05.39 0 .061.021.11.061.16.11.09.09.141.22.141.351 0 .069-.011.13-.03.189-.03.061-.06.12-.11.16C55.898 71.708 55.777 71.759 55.638 71.759zM45.178 62.538c-.07 0-.141-.01-.2-.04-.061-.02-.11-.06-.16-.1-.04-.05-.08-.101-.11-.17-.02-.061-.029-.12-.029-.19 0-.06.01-.13.029-.189.03-.061.07-.11.11-.16.05-.05.1-.08.16-.11.189-.08.41-.03.55.11.05.05.08.1.11.16.02.06.029.13.029.189 0 .07-.01.13-.029.19-.03.069-.061.12-.11.17-.05.04-.1.08-.16.1C45.308 62.528 45.237 62.538 45.178 62.538zM67.303 35.743c-.081 0-.163-.02-.238-.061-.887-.48-1.821-.713-2.793-.664-.289-.017-.509-.203-.521-.479-.011-.275.203-.509.479-.521 1.144-.04 2.263.216 3.311.785.243.132.333.436.201.678C67.652 35.648 67.48 35.743 67.303 35.743zM72.631 44.937c-.007 0-.014 0-.021 0-.275-.012-.49-.244-.479-.521.012-.274.011-.554-.001-.835-.113-2.722-1.305-5.199-3.186-6.626-.221-.167-.264-.48-.097-.7.168-.221.481-.263.7-.097 2.117 1.605 3.456 4.365 3.582 7.383.012.31.013.614.001.916C73.119 44.726 72.899 44.937 72.631 44.937z"/></svg>