<svg xmlns="http://www.w3.org/2000/svg" xmlns:xlink="http://www.w3.org/1999/xlink" viewBox="0 0 100 100"><circle cx="50" cy="50" r="28" fill="#f9e65c"/><path fill="#b07454" d="M37.5,51.5c0.265,6.67,5.752,12,12.5,12s12.235-5.33,12.5-12H37.5z"/><path fill="#f15b6c" d="M40.67,59.315c2.29,2.565,5.616,4.185,9.33,4.185s7.041-1.621,9.33-4.185C57.243,57.612,53.846,56.5,50,56.5S42.757,57.612,40.67,59.315z"/><path fill="#1f212b" d="M50,79c-15.99,0-29-13.009-29-29s13.01-29,29-29s29,13.009,29,29S65.99,79,50,79z M50,23c-14.888,0-27,12.112-27,27s12.112,27,27,27s27-12.112,27-27S64.888,23,50,23z"/><path fill="#1f212b" d="M57.5,71.715c-0.206,0-0.398-0.128-0.472-0.333c-0.092-0.26,0.045-0.546,0.305-0.638c1.004-0.355,1.991-0.788,2.934-1.286c0.242-0.128,0.546-0.037,0.676,0.208c0.129,0.244,0.035,0.547-0.209,0.676c-0.984,0.521-2.017,0.974-3.066,1.345C57.611,71.706,57.556,71.715,57.5,71.715z"/><path fill="#1f212b" d="M54.499,72.549c-0.232,0-0.441-0.164-0.489-0.401c-0.055-0.271,0.12-0.535,0.392-0.589c0.328-0.066,0.653-0.142,0.977-0.223c0.269-0.071,0.539,0.096,0.607,0.363c0.066,0.268-0.096,0.54-0.363,0.606c-0.339,0.085-0.68,0.165-1.023,0.234C54.565,72.546,54.532,72.549,54.499,72.549z"/><path fill="#1f212b" d="M50,73c-12.683,0-23-10.318-23-23s10.317-23,23-23c3.733,0,7.444,0.919,10.733,2.659c0.244,0.129,0.338,0.432,0.209,0.676c-0.13,0.245-0.434,0.337-0.676,0.208C57.121,28.879,53.57,28,50,28c-12.131,0-22,9.869-22,22s9.869,22,22,22c0.103,0,0.203-0.003,0.305-0.007l0.184-0.006c0.267,0.024,0.505,0.212,0.512,0.488c0.006,0.276-0.212,0.505-0.488,0.512l-0.174,0.005C50.226,72.996,50.113,73,50,73z"/><path fill="#1f212b" d="M64.5,33.322c-0.114,0-0.229-0.039-0.323-0.119c-0.721-0.61-1.342-1.085-1.955-1.496c-0.229-0.154-0.291-0.464-0.137-0.694c0.152-0.23,0.463-0.29,0.693-0.137c0.646,0.432,1.295,0.929,2.045,1.564c0.211,0.178,0.236,0.494,0.059,0.705C64.782,33.262,64.642,33.322,64.5,33.322z"/><path fill="#1f212b" d="M59.33,59.814c-0.111,0-0.224-0.037-0.316-0.112C56.938,58.01,53.569,57,50,57s-6.938,1.01-9.014,2.702c-0.209,0.167-0.511,0.145-0.689-0.055C38.29,57.4,37.119,54.514,37,51.52c-0.005-0.136,0.045-0.269,0.14-0.367C37.233,51.056,37.364,51,37.5,51h25c0.136,0,0.267,0.056,0.36,0.153c0.095,0.098,0.145,0.23,0.14,0.367c-0.119,2.994-1.29,5.88-3.297,8.127C59.604,59.758,59.468,59.814,59.33,59.814z M50,56c3.638,0,6.979,0.953,9.26,2.628c1.557-1.885,2.505-4.207,2.708-6.628H38.032c0.203,2.422,1.151,4.743,2.708,6.628C43.021,56.953,46.362,56,50,56z"/><path fill="#1f212b" d="M50,64c-3.698,0-7.234-1.586-9.703-4.353c-0.091-0.102-0.136-0.236-0.125-0.373s0.076-0.262,0.182-0.348C42.636,57.067,46.151,56,50,56s7.364,1.067,9.646,2.927c0.105,0.086,0.171,0.212,0.182,0.348s-0.034,0.271-0.125,0.373C57.234,62.414,53.698,64,50,64z M41.412,59.377C43.667,61.686,46.767,63,50,63s6.333-1.314,8.588-3.623C56.494,57.881,53.334,57,50,57S43.506,57.881,41.412,59.377z"/><path fill="#1f212b" d="M43.999,45c-0.488,0-0.916-0.358-0.988-0.855C42.831,42.922,41.752,42,40.5,42s-2.331,0.922-2.511,2.145c-0.08,0.546-0.589,0.923-1.134,0.844c-0.547-0.08-0.925-0.588-0.845-1.134C36.332,41.657,38.263,40,40.5,40s4.168,1.657,4.489,3.855c0.08,0.546-0.298,1.054-0.845,1.134C44.096,44.997,44.047,45,43.999,45z"/><path fill="#1f212b" d="M62.999,45c-0.488,0-0.916-0.358-0.988-0.855C61.831,42.922,60.752,42,59.5,42s-2.331,0.922-2.511,2.145c-0.08,0.546-0.589,0.923-1.134,0.844c-0.547-0.08-0.925-0.588-0.845-1.134C55.332,41.657,57.263,40,59.5,40s4.168,1.657,4.489,3.855c0.08,0.546-0.298,1.054-0.845,1.134C63.096,44.997,63.047,45,62.999,45z"/><path fill="#1f212b" d="M50,19c-0.553,0-1-0.448-1-1V9c0-0.552,0.447-1,1-1s1,0.448,1,1v9C51,18.552,50.553,19,50,19z"/><path fill="#1f212b" d="M34.001,23.287c-0.346,0-0.682-0.179-0.867-0.5l-4.5-7.794c-0.276-0.479-0.112-1.09,0.366-1.366c0.477-0.277,1.089-0.113,1.366,0.366l4.5,7.794c0.276,0.479,0.112,1.09-0.366,1.366C34.343,23.244,34.171,23.287,34.001,23.287z"/><path fill="#1f212b" d="M22.286,35c-0.17,0-0.342-0.043-0.499-0.134l-7.795-4.5c-0.479-0.276-0.643-0.888-0.366-1.366s0.888-0.642,1.366-0.366l7.795,4.5c0.479,0.276,0.643,0.888,0.366,1.366C22.968,34.821,22.632,35,22.286,35z"/><path fill="#1f212b" d="M18,51H8.999c-0.553,0-1-0.448-1-1s0.447-1,1-1H18c0.553,0,1,0.448,1,1S18.553,51,18,51z"/><path fill="#1f212b" d="M14.493,71.5c-0.346,0-0.682-0.179-0.867-0.5c-0.276-0.479-0.112-1.09,0.366-1.366l7.795-4.5c0.477-0.276,1.089-0.113,1.366,0.366c0.276,0.479,0.112,1.09-0.366,1.366l-7.795,4.5C14.835,71.458,14.663,71.5,14.493,71.5z"/><path fill="#1f212b" d="M29.499,86.507c-0.17,0-0.342-0.043-0.499-0.134c-0.479-0.276-0.643-0.888-0.366-1.366l4.5-7.794c0.276-0.479,0.888-0.643,1.366-0.366c0.479,0.276,0.643,0.888,0.366,1.366l-4.5,7.794C30.181,86.328,29.845,86.507,29.499,86.507z"/><path fill="#1f212b" d="M50,92c-0.553,0-1-0.448-1-1v-9c0-0.552,0.447-1,1-1s1,0.448,1,1v9C51,91.553,50.553,92,50,92z"/><path fill="#1f212b" d="M70.501,86.507c-0.346,0-0.682-0.179-0.867-0.5l-4.5-7.794c-0.276-0.479-0.112-1.09,0.366-1.366c0.476-0.277,1.089-0.113,1.366,0.366l4.5,7.794c0.276,0.479,0.112,1.09-0.366,1.366C70.843,86.464,70.671,86.507,70.501,86.507z"/><path fill="#1f212b" d="M85.507,71.5c-0.17,0-0.342-0.043-0.499-0.134l-7.795-4.5c-0.479-0.276-0.643-0.888-0.366-1.366c0.276-0.479,0.888-0.643,1.366-0.366l7.795,4.5c0.479,0.276,0.643,0.888,0.366,1.366C86.188,71.321,85.853,71.5,85.507,71.5z"/><path fill="#1f212b" d="M91.001,51H82c-0.553,0-1-0.448-1-1s0.447-1,1-1h9.001c0.553,0,1,0.448,1,1S91.554,51,91.001,51z"/><path fill="#1f212b" d="M77.714,35c-0.346,0-0.682-0.179-0.867-0.5c-0.276-0.479-0.112-1.09,0.366-1.366l7.795-4.5c0.476-0.276,1.089-0.112,1.366,0.366c0.276,0.479,0.112,1.09-0.366,1.366l-7.795,4.5C78.056,34.957,77.884,35,77.714,35z"/><path fill="#1f212b" d="M65.999,23.287c-0.17,0-0.342-0.043-0.499-0.134c-0.479-0.276-0.643-0.888-0.366-1.366l4.5-7.794c0.276-0.479,0.888-0.643,1.366-0.366c0.479,0.276,0.643,0.888,0.366,1.366l-4.5,7.794C66.681,23.108,66.345,23.287,65.999,23.287z"/></svg>