<svg xmlns="http://www.w3.org/2000/svg" xmlns:xlink="http://www.w3.org/1999/xlink" viewBox="0 0 100 100"><path fill="#fdf5a9" d="M64.146 28.063000000000002A19.674 19.674 0 1 0 64.146 67.411A19.674 19.674 0 1 0 64.146 28.063000000000002Z"/><path fill="#8eb4da" d="M83.55,56.529c-0.878,0-1.725,0.134-2.535,0.365c-0.531-6.881-5.955-12.293-12.58-12.293c-3.82,0-7.235,1.805-9.552,4.646c-2.828-6.05-8.694-10.219-15.493-10.219c-9.369,0-16.979,7.902-17.273,17.762c-0.695-0.166-1.415-0.262-2.157-0.262c-5.39,0-9.759,4.634-9.759,10.349c0,5.716,4.369,10.35,9.759,10.35c0.627,0,58.963,0,59.59,0c5.39,0,9.759-4.634,9.759-10.35C93.309,61.163,88.939,56.529,83.55,56.529z"/><path fill="#1f212b" d="M67.882,78.228c-2.757,0-5-2.243-5-5s2.243-5,5-5s5,2.243,5,5S70.639,78.228,67.882,78.228z M67.882,69.228c-2.206,0-4,1.794-4,4s1.794,4,4,4s4-1.794,4-4S70.088,69.228,67.882,69.228z"/><path fill="#1f212b" d="M68.382 69.228c-.276 0-.5-.224-.5-.5v-6c0-.276.224-.5.5-.5s.5.224.5.5v6C68.882 69.005 68.658 69.228 68.382 69.228zM68.382 83.228c-.276 0-.5-.224-.5-.5v-5c0-.276.224-.5.5-.5s.5.224.5.5v5C68.882 83.005 68.658 83.228 68.382 83.228z"/><path fill="#1f212b" d="M66.16,82.23c-0.143,0-0.284-0.061-0.383-0.179c-0.178-0.211-0.15-0.526,0.062-0.704l2.075-1.742c0.211-0.18,0.526-0.15,0.704,0.062c0.178,0.211,0.15,0.526-0.062,0.704l-2.075,1.742C66.388,82.192,66.273,82.23,66.16,82.23z"/><path fill="#1f212b" d="M70.565 82.23c-.113 0-.228-.038-.321-.117l-2.076-1.742c-.212-.178-.239-.493-.062-.704s.493-.24.704-.062l2.076 1.742c.212.178.239.493.062.704C70.85 82.17 70.708 82.23 70.565 82.23zM68.489 65.627c-.143 0-.284-.061-.383-.179-.178-.211-.15-.526.062-.704l2.076-1.742c.211-.18.526-.151.704.062.178.211.15.526-.062.704l-2.076 1.742C68.717 65.589 68.603 65.627 68.489 65.627z"/><path fill="#1f212b" d="M68.235 65.627c-.113 0-.228-.038-.321-.117l-2.075-1.742c-.212-.178-.239-.493-.062-.704.178-.212.493-.24.704-.062l2.075 1.742c.212.178.239.493.062.704C68.52 65.566 68.378 65.627 68.235 65.627zM78.382 73.228h-6c-.276 0-.5-.224-.5-.5s.224-.5.5-.5h6c.276 0 .5.224.5.5S78.658 73.228 78.382 73.228zM63.382 73.228h-5c-.276 0-.5-.224-.5-.5s.224-.5.5-.5h5c.276 0 .5.224.5.5S63.658 73.228 63.382 73.228z"/><path fill="#1f212b" d="M61.122,73.121c-0.143,0-0.284-0.061-0.383-0.179l-1.742-2.075c-0.178-0.211-0.15-0.526,0.062-0.704c0.211-0.18,0.527-0.151,0.704,0.062l1.742,2.075c0.178,0.211,0.15,0.526-0.062,0.704C61.35,73.083,61.235,73.121,61.122,73.121z"/><path fill="#1f212b" d="M59.38 75.451c-.113 0-.228-.038-.321-.117-.212-.178-.239-.493-.062-.704l1.742-2.075c.178-.212.493-.24.704-.062.212.178.239.493.062.704l-1.742 2.075C59.664 75.39 59.523 75.451 59.38 75.451zM77.726 75.451c-.143 0-.284-.061-.383-.179l-1.742-2.075c-.178-.211-.15-.526.062-.704.212-.18.526-.151.704.062l1.742 2.075c.178.211.15.526-.062.704C77.953 75.413 77.839 75.451 77.726 75.451z"/><path fill="#1f212b" d="M75.983 73.121c-.113 0-.228-.038-.321-.117-.212-.178-.239-.493-.062-.704l1.742-2.075c.178-.212.493-.239.704-.062.212.178.239.493.062.704l-1.742 2.075C76.268 73.06 76.126 73.121 75.983 73.121zM75.314 80.199c-.128 0-.256-.049-.354-.146l-3.725-3.725c-.195-.195-.195-.512 0-.707s.512-.195.707 0l3.725 3.725c.195.195.195.512 0 .707C75.569 80.15 75.441 80.199 75.314 80.199zM65.04 69.927c-.128 0-.256-.049-.354-.146l-3.897-3.898c-.195-.195-.195-.512 0-.707s.512-.195.707 0l3.897 3.898c.195.195.195.512 0 .707C65.296 69.878 65.168 69.927 65.04 69.927z"/><path fill="#1f212b" d="M63.199,67.904c-0.015,0-0.029-0.001-0.044-0.002c-0.275-0.024-0.479-0.267-0.455-0.541l0.235-2.699c0.024-0.275,0.269-0.473,0.541-0.455c0.275,0.024,0.479,0.267,0.455,0.541l-0.235,2.699C63.674,67.708,63.455,67.904,63.199,67.904z"/><path fill="#1f212b" d="M60.317 68.319c-.256 0-.475-.196-.497-.457-.024-.274.18-.518.455-.541l2.7-.235c.267-.027.518.179.541.455.024.274-.18.518-.455.541l-2.7.235C60.347 68.318 60.332 68.319 60.317 68.319zM73.292 81.292c-.015 0-.029-.001-.044-.002-.275-.024-.479-.267-.455-.541l.235-2.699c.023-.276.274-.479.541-.455.275.024.479.267.455.541l-.235 2.699C73.767 81.096 73.548 81.292 73.292 81.292z"/><path fill="#1f212b" d="M73.706 78.413c-.256 0-.475-.196-.497-.456-.024-.275.18-.518.454-.542l2.699-.236c.279-.021.518.18.542.454.024.275-.18.518-.454.542l-2.699.236C73.735 78.412 73.721 78.413 73.706 78.413zM71.287 70.323c-.128 0-.256-.049-.354-.146-.195-.195-.195-.512 0-.707l3.898-3.898c.195-.195.512-.195.707 0s.195.512 0 .707l-3.898 3.898C71.543 70.274 71.415 70.323 71.287 70.323zM60.754 80.855c-.128 0-.256-.049-.354-.146-.195-.195-.195-.512 0-.707l3.898-3.898c.195-.195.512-.195.707 0s.195.512 0 .707l-3.898 3.898C61.01 80.806 60.882 80.855 60.754 80.855z"/><path fill="#1f212b" d="M62.892,78.54c-0.015,0-0.029-0.001-0.044-0.002l-2.7-0.235c-0.275-0.023-0.479-0.267-0.455-0.541c0.024-0.276,0.266-0.462,0.541-0.455l2.7,0.235c0.275,0.023,0.479,0.267,0.455,0.541C63.366,78.344,63.148,78.54,62.892,78.54z"/><path fill="#1f212b" d="M63.305 81.419c-.256 0-.475-.196-.497-.457l-.235-2.699c-.024-.274.18-.517.455-.541.269-.022.517.18.541.455l.235 2.699c.024.274-.18.517-.455.541C63.334 81.418 63.319 81.419 63.305 81.419zM76.279 68.447c-.015 0-.029-.001-.045-.002l-2.699-.236c-.274-.024-.479-.267-.454-.542.023-.274.258-.466.542-.454l2.699.236c.274.024.479.267.454.542C76.754 68.251 76.535 68.447 76.279 68.447z"/><path fill="#1f212b" d="M73.398,68.031c-0.256,0-0.475-0.196-0.497-0.457l-0.235-2.699c-0.024-0.274,0.18-0.517,0.455-0.541c0.257-0.017,0.517,0.18,0.541,0.455l0.235,2.699c0.024,0.274-0.18,0.517-0.455,0.541C73.427,68.03,73.412,68.031,73.398,68.031z"/><path fill="#1f212b" d="M83.502,78.228c-0.553,0-1-0.447-1-1s0.447-1,1-1c4.83,0,8.76-4.194,8.76-9.35c0-5.942-5.259-10.661-11.021-9.022c-0.289,0.081-0.6,0.03-0.845-0.142c-0.246-0.171-0.402-0.444-0.426-0.743c-0.491-6.376-5.579-11.37-11.582-11.37c-3.36,0-6.56,1.56-8.776,4.278c-0.218,0.267-0.562,0.398-0.898,0.36c-0.342-0.042-0.637-0.257-0.783-0.568c-2.78-5.948-8.369-9.643-14.587-9.643c-8.845,0-15.993,7.376-16.272,16.791c-0.01,0.301-0.153,0.582-0.393,0.765c-0.237,0.183-0.544,0.251-0.84,0.179c-5.677-1.352-10.685,3.292-10.685,9.115c0,5.155,3.93,9.35,8.76,9.35h26.969c0.553,0,1,0.447,1,1s-0.447,1-1,1H23.913c-5.933,0-10.76-5.092-10.76-11.35c-0.001-6.684,5.514-12.084,11.983-11.272c0.842-9.946,8.639-17.577,18.206-17.577c6.528,0,12.432,3.596,15.724,9.478c2.519-2.498,5.843-3.905,9.321-3.905c6.675,0,12.381,5.216,13.443,12.072c0.562-0.096,1.12-0.145,1.671-0.145c5.933,0,10.76,5.092,10.76,11.35S89.435,78.228,83.502,78.228z"/><path fill="#1f212b" d="M83.982 52.473c-.066 0-.134-.007-.201-.021-.541-.11-.89-.638-.779-1.18.253-1.24.381-2.514.381-3.786 0-10.354-8.424-18.776-18.777-18.776-6.04 0-11.75 2.936-15.273 7.852-.321.448-.946.554-1.395.23-.449-.321-.553-.946-.23-1.395 3.897-5.44 10.215-8.688 16.898-8.688 11.457 0 20.777 9.32 20.777 20.776 0 1.406-.142 2.814-.422 4.187C84.864 52.147 84.448 52.473 83.982 52.473zM63.882 25.228c-.553 0-1-.447-1-1v-7c0-.553.447-1 1-1s1 .447 1 1v7C64.882 24.781 64.435 25.228 63.882 25.228zM93.882 49.228h-6c-.553 0-1-.447-1-1s.447-1 1-1h6c.553 0 1 .447 1 1S94.435 49.228 93.882 49.228z"/><path fill="#1f212b" d="M80.683 32.201c-.256 0-.512-.098-.707-.293-.391-.391-.391-1.023 0-1.414l4.652-4.652c.391-.391 1.023-.391 1.414 0s.391 1.023 0 1.414l-4.652 4.652C81.194 32.103 80.939 32.201 80.683 32.201zM47.388 31.979c-.256 0-.512-.098-.707-.293l-4.706-4.706c-.391-.391-.391-1.023 0-1.414s1.023-.391 1.414 0l4.706 4.706c.391.391.391 1.023 0 1.414C47.899 31.882 47.644 31.979 47.388 31.979zM74.553 35.921c-.112 0-.226-.037-.318-.114-.327-.271-.665-.526-1.015-.769-.228-.157-.284-.469-.127-.695.156-.229.469-.285.695-.127.373.258.734.531 1.083.819.213.177.243.491.067.704C74.839 35.859 74.696 35.921 74.553 35.921zM52.539 38.041c-.112 0-.225-.037-.318-.114-.213-.176-.243-.491-.067-.704 3.08-3.732 7.619-5.873 12.452-5.873 2.674 0 5.323.668 7.66 1.932.243.131.334.435.202.677-.131.244-.438.334-.677.202-2.192-1.185-4.677-1.811-7.186-1.811-4.534 0-8.791 2.008-11.681 5.51C52.826 37.979 52.683 38.041 52.539 38.041zM52.382 73.228h-5c-.276 0-.5-.224-.5-.5s.224-.5.5-.5h5c.276 0 .5.224.5.5S52.658 73.228 52.382 73.228zM45.382 73.228h-1c-.276 0-.5-.224-.5-.5s.224-.5.5-.5h1c.276 0 .5.224.5.5S45.658 73.228 45.382 73.228zM41.382 73.228h-19c-.276 0-.5-.224-.5-.5s.224-.5.5-.5h19c.276 0 .5.224.5.5S41.658 73.228 41.382 73.228z"/></svg>