<svg xmlns="http://www.w3.org/2000/svg" xmlns:xlink="http://www.w3.org/1999/xlink" viewBox="0 0 100 100"><path fill="#e3e3e4" d="M70,59c0,0,4.576,0,9.5,0C85.299,59,90,54.299,90,48.5C90,42.701,85.299,38,79.5,38c-0.884,0-1.739,0.121-2.559,0.327C76.349,31.974,71.008,27,64.5,27c-3.935,0-7.441,1.822-9.733,4.665C52.254,25.417,46.148,21,39,21c-9.389,0-17,7.611-17,17c0,0.041,0.006,0.08,0.006,0.12C21.513,38.049,21.013,38,20.5,38C14.701,38,10,42.701,10,48.5C10,54.299,14.701,59,20.5,59c4.373,0,18.5,0,18.5,0v1h31V59z"/><path fill="#1f212b" d="M79.5,60H70c-0.553,0-1-0.448-1-1s0.447-1,1-1h9.5c5.238,0,9.5-4.262,9.5-9.5S84.738,39,79.5,39c-0.751,0-1.53,0.1-2.316,0.297c-0.282,0.073-0.583,0.015-0.821-0.153c-0.238-0.169-0.391-0.433-0.418-0.724C75.392,32.479,70.472,28,64.5,28c-3.492,0-6.755,1.564-8.954,4.292c-0.223,0.276-0.57,0.415-0.926,0.362c-0.351-0.052-0.647-0.287-0.78-0.616C51.387,25.94,45.562,22,39,22c-8.822,0-16,7.178-16,16l0.006,0.12c0,0.29-0.126,0.566-0.345,0.756c-0.22,0.189-0.506,0.276-0.798,0.234C21.341,39.035,20.908,39,20.5,39c-5.238,0-9.5,4.262-9.5,9.5s4.262,9.5,9.5,9.5H39c0.553,0,1,0.448,1,1s-0.447,1-1,1H20.5C14.159,60,9,54.841,9,48.5S14.159,37,20.5,37c0.173,0,0.347,0.005,0.526,0.015C21.54,27.546,29.405,20,39,20c6.857,0,12.999,3.824,16.05,9.866C57.563,27.392,60.93,26,64.5,26c6.637,0,12.167,4.714,13.289,11.135C78.366,37.045,78.938,37,79.5,37C85.841,37,91,42.159,91,48.5S85.841,60,79.5,60z"/><path fill="#1f212b" d="M72.238,42c-0.041,0-0.083-0.005-0.125-0.016c-0.268-0.069-0.428-0.342-0.359-0.609C71.917,40.742,72,40.111,72,39.5c0-2.283-1.025-4.415-2.813-5.85c-0.216-0.173-0.25-0.488-0.077-0.703c0.174-0.216,0.489-0.249,0.702-0.077C71.838,34.496,73,36.912,73,39.5c0,0.696-0.094,1.411-0.277,2.125C72.664,41.851,72.461,42,72.238,42z"/><path fill="#1f212b" d="M67.5,32.587c-0.063,0-0.126-0.012-0.188-0.037C66.411,32.185,65.465,32,64.5,32c-0.276,0-0.5-0.224-0.5-0.5s0.224-0.5,0.5-0.5c1.094,0,2.167,0.21,3.188,0.624c0.256,0.104,0.38,0.395,0.276,0.651C67.885,32.469,67.697,32.587,67.5,32.587z"/><path fill="#1f212b" d="M54.5,60c-2.481,0-4.5-2.019-4.5-4.5s2.019-4.5,4.5-4.5s4.5,2.019,4.5,4.5S56.981,60,54.5,60z M54.5,52c-1.93,0-3.5,1.57-3.5,3.5s1.57,3.5,3.5,3.5s3.5-1.57,3.5-3.5S56.43,52,54.5,52z"/><path fill="#1f212b" d="M54.5,52c-0.276,0-0.5-0.224-0.5-0.5v-6c0-0.276,0.224-0.5,0.5-0.5s0.5,0.224,0.5,0.5v6C55,51.776,54.776,52,54.5,52z"/><path fill="#1f212b" d="M54.5,49.207l-2.354-2.354c-0.195-0.195-0.195-0.512,0-0.707s0.512-0.195,0.707,0l1.646,1.646l1.646-1.646c0.195-0.195,0.512-0.195,0.707,0s0.195,0.512,0,0.707L54.5,49.207z"/><path fill="#1f212b" d="M51.672,53.171c-0.128,0-0.256-0.049-0.354-0.146l-4.243-4.243c-0.195-0.195-0.195-0.512,0-0.707s0.512-0.195,0.707,0l4.243,4.243c0.195,0.195,0.195,0.512,0,0.707C51.928,53.123,51.8,53.171,51.672,53.171z"/><path fill="#1f212b" d="M50,51h-3.328c-0.276,0-0.5-0.224-0.5-0.5s0.224-0.5,0.5-0.5H49v-2.329c0-0.276,0.224-0.5,0.5-0.5s0.5,0.224,0.5,0.5V51z"/><path fill="#1f212b" d="M50.5,56h-6c-0.276,0-0.5-0.224-0.5-0.5s0.224-0.5,0.5-0.5h6c0.276,0,0.5,0.224,0.5,0.5S50.776,56,50.5,56z"/><path fill="#1f212b" d="M45.5,58c-0.128,0-0.256-0.049-0.354-0.146c-0.195-0.195-0.195-0.512,0-0.707l1.646-1.646l-1.646-1.646c-0.195-0.195-0.195-0.512,0-0.707s0.512-0.195,0.707,0l2.354,2.354l-2.354,2.354C45.756,57.951,45.628,58,45.5,58z"/><path fill="#1f212b" d="M47.429,63.071c-0.128,0-0.256-0.049-0.354-0.146c-0.195-0.195-0.195-0.512,0-0.707l4.243-4.243c0.195-0.195,0.512-0.195,0.707,0s0.195,0.512,0,0.707l-4.243,4.243C47.685,63.022,47.557,63.071,47.429,63.071z"/><path fill="#1f212b" d="M49.5,63.829c-0.276,0-0.5-0.224-0.5-0.5V61h-2.328c-0.276,0-0.5-0.224-0.5-0.5s0.224-0.5,0.5-0.5H50v3.329C50,63.605,49.776,63.829,49.5,63.829z"/><path fill="#1f212b" d="M54.5,66c-0.276,0-0.5-0.224-0.5-0.5v-6c0-0.276,0.224-0.5,0.5-0.5s0.5,0.224,0.5,0.5v6C55,65.776,54.776,66,54.5,66z"/><path fill="#1f212b" d="M56.5,65c-0.128,0-0.256-0.049-0.354-0.146L54.5,63.207l-1.646,1.646c-0.195,0.195-0.512,0.195-0.707,0s-0.195-0.512,0-0.707l2.354-2.354l2.354,2.354c0.195,0.195,0.195,0.512,0,0.707C56.756,64.951,56.628,65,56.5,65z"/><path fill="#1f212b" d="M61.571,63.071c-0.128,0-0.256-0.049-0.354-0.146l-4.243-4.243c-0.195-0.195-0.195-0.512,0-0.707s0.512-0.195,0.707,0l4.243,4.243c0.195,0.195,0.195,0.512,0,0.707C61.827,63.022,61.699,63.071,61.571,63.071z"/><path fill="#1f212b" d="M59.5,63.829c-0.276,0-0.5-0.224-0.5-0.5V60h3.328c0.276,0,0.5,0.224,0.5,0.5s-0.224,0.5-0.5,0.5H60v2.329C60,63.605,59.776,63.829,59.5,63.829z"/><path fill="#1f212b" d="M64.5,56h-6c-0.276,0-0.5-0.224-0.5-0.5s0.224-0.5,0.5-0.5h6c0.276,0,0.5,0.224,0.5,0.5S64.776,56,64.5,56z"/><path fill="#1f212b" d="M63.5,58c-0.128,0-0.256-0.049-0.354-0.146L60.793,55.5l2.354-2.354c0.195-0.195,0.512-0.195,0.707,0s0.195,0.512,0,0.707L62.207,55.5l1.646,1.646c0.195,0.195,0.195,0.512,0,0.707C63.756,57.951,63.628,58,63.5,58z"/><path fill="#1f212b" d="M57.328,53.171c-0.128,0-0.256-0.049-0.354-0.146c-0.195-0.195-0.195-0.512,0-0.707l4.243-4.243c0.195-0.195,0.512-0.195,0.707,0s0.195,0.512,0,0.707l-4.243,4.243C57.584,53.123,57.456,53.171,57.328,53.171z"/><path fill="#1f212b" d="M62.328,51H59v-3.329c0-0.276,0.224-0.5,0.5-0.5s0.5,0.224,0.5,0.5V50h2.328c0.276,0,0.5,0.224,0.5,0.5S62.604,51,62.328,51z"/><path fill="#1f212b" d="M72.5,73c-0.276,0-0.5-0.224-0.5-0.5v-6c0-0.276,0.224-0.5,0.5-0.5s0.5,0.224,0.5,0.5v6C73,72.776,72.776,73,72.5,73z"/><path fill="#1f212b" d="M74.621,72.121c-0.128,0-0.256-0.049-0.354-0.146l-4.242-4.242c-0.195-0.195-0.195-0.512,0-0.707s0.512-0.195,0.707,0l4.242,4.242c0.195,0.195,0.195,0.512,0,0.707C74.877,72.072,74.749,72.121,74.621,72.121z"/><path fill="#1f212b" d="M75.5,70h-6c-0.276,0-0.5-0.224-0.5-0.5s0.224-0.5,0.5-0.5h6c0.276,0,0.5,0.224,0.5,0.5S75.776,70,75.5,70z"/><path fill="#1f212b" d="M70.379,72.121c-0.128,0-0.256-0.049-0.354-0.146c-0.195-0.195-0.195-0.512,0-0.707l4.242-4.242c0.195-0.195,0.512-0.195,0.707,0s0.195,0.512,0,0.707l-4.242,4.242C70.635,72.072,70.507,72.121,70.379,72.121z"/><path fill="#1f212b" d="M66.5,83c-0.276,0-0.5-0.224-0.5-0.5v-6c0-0.276,0.224-0.5,0.5-0.5s0.5,0.224,0.5,0.5v6C67,82.776,66.776,83,66.5,83z"/><path fill="#1f212b" d="M68.621,82.121c-0.128,0-0.256-0.049-0.354-0.146l-4.242-4.242c-0.195-0.195-0.195-0.512,0-0.707s0.512-0.195,0.707,0l4.242,4.242c0.195,0.195,0.195,0.512,0,0.707C68.877,82.072,68.749,82.121,68.621,82.121z"/><path fill="#1f212b" d="M69.5,80h-6c-0.276,0-0.5-0.224-0.5-0.5s0.224-0.5,0.5-0.5h6c0.276,0,0.5,0.224,0.5,0.5S69.776,80,69.5,80z"/><path fill="#1f212b" d="M64.379,82.121c-0.128,0-0.256-0.049-0.354-0.146c-0.195-0.195-0.195-0.512,0-0.707l4.242-4.242c0.195-0.195,0.512-0.195,0.707,0s0.195,0.512,0,0.707l-4.242,4.242C64.635,82.072,64.507,82.121,64.379,82.121z"/><path fill="#1f212b" d="M42.5,83c-0.276,0-0.5-0.224-0.5-0.5v-6c0-0.276,0.224-0.5,0.5-0.5s0.5,0.224,0.5,0.5v6C43,82.776,42.776,83,42.5,83z"/><path fill="#1f212b" d="M44.621,82.121c-0.128,0-0.256-0.049-0.354-0.146l-4.242-4.242c-0.195-0.195-0.195-0.512,0-0.707s0.512-0.195,0.707,0l4.242,4.242c0.195,0.195,0.195,0.512,0,0.707C44.877,82.072,44.749,82.121,44.621,82.121z"/><path fill="#1f212b" d="M45.5,80h-6c-0.276,0-0.5-0.224-0.5-0.5s0.224-0.5,0.5-0.5h6c0.276,0,0.5,0.224,0.5,0.5S45.776,80,45.5,80z"/><path fill="#1f212b" d="M40.379,82.121c-0.128,0-0.256-0.049-0.354-0.146c-0.195-0.195-0.195-0.512,0-0.707l4.242-4.242c0.195-0.195,0.512-0.195,0.707,0s0.195,0.512,0,0.707l-4.242,4.242C40.635,82.072,40.507,82.121,40.379,82.121z"/><path fill="#1f212b" d="M54.5,77c-0.276,0-0.5-0.224-0.5-0.5v-6c0-0.276,0.224-0.5,0.5-0.5s0.5,0.224,0.5,0.5v6C55,76.776,54.776,77,54.5,77z"/><path fill="#1f212b" d="M56.621,76.121c-0.128,0-0.256-0.049-0.354-0.146l-4.242-4.242c-0.195-0.195-0.195-0.512,0-0.707s0.512-0.195,0.707,0l4.242,4.242c0.195,0.195,0.195,0.512,0,0.707C56.877,76.072,56.749,76.121,56.621,76.121z"/><path fill="#1f212b" d="M57.5,74h-6c-0.276,0-0.5-0.224-0.5-0.5s0.224-0.5,0.5-0.5h6c0.276,0,0.5,0.224,0.5,0.5S57.776,74,57.5,74z"/><path fill="#1f212b" d="M52.379,76.121c-0.128,0-0.256-0.049-0.354-0.146c-0.195-0.195-0.195-0.512,0-0.707l4.242-4.242c0.195-0.195,0.512-0.195,0.707,0s0.195,0.512,0,0.707l-4.242,4.242C52.635,76.072,52.507,76.121,52.379,76.121z"/><path fill="#1f212b" d="M36.5,73c-0.276,0-0.5-0.224-0.5-0.5v-6c0-0.276,0.224-0.5,0.5-0.5s0.5,0.224,0.5,0.5v6C37,72.776,36.776,73,36.5,73z"/><path fill="#1f212b" d="M38.621,72.121c-0.128,0-0.256-0.049-0.354-0.146l-4.242-4.242c-0.195-0.195-0.195-0.512,0-0.707s0.512-0.195,0.707,0l4.242,4.242c0.195,0.195,0.195,0.512,0,0.707C38.877,72.072,38.749,72.121,38.621,72.121z"/><path fill="#1f212b" d="M39.5,70h-6c-0.276,0-0.5-0.224-0.5-0.5s0.224-0.5,0.5-0.5h6c0.276,0,0.5,0.224,0.5,0.5S39.776,70,39.5,70z"/><path fill="#1f212b" d="M34.379,72.121c-0.128,0-0.256-0.049-0.354-0.146c-0.195-0.195-0.195-0.512,0-0.707l4.242-4.242c0.195-0.195,0.512-0.195,0.707,0s0.195,0.512,0,0.707l-4.242,4.242C34.635,72.072,34.507,72.121,34.379,72.121z"/></svg>