<svg xmlns="http://www.w3.org/2000/svg" xmlns:xlink="http://www.w3.org/1999/xlink" viewBox="0 0 100 100"><path fill="#1f212b" d="M26.5,32.5c-0.276,0-0.5-0.224-0.5-0.5v-9.5c0-0.276,0.224-0.5,0.5-0.5s0.5,0.224,0.5,0.5V32 C27,32.276,26.776,32.5,26.5,32.5z"/><path fill="#1f212b" d="M26.5,32.5c-0.083,0-0.166-0.021-0.243-0.063l-8.55-4.75c-0.241-0.135-0.328-0.438-0.194-0.681 c0.135-0.243,0.44-0.325,0.681-0.194l8.55,4.75c0.241,0.135,0.328,0.438,0.194,0.681C26.846,32.407,26.675,32.5,26.5,32.5z"/><path fill="#1f212b" d="M17.95,37.25c-0.175,0-0.346-0.093-0.438-0.257c-0.134-0.242-0.047-0.546,0.194-0.681l8.55-4.75 c0.24-0.13,0.545-0.048,0.681,0.194c0.134,0.242,0.047,0.546-0.194,0.681l-8.55,4.75C18.116,37.229,18.033,37.25,17.95,37.25z"/><path fill="#1f212b" d="M26.5,42c-0.276,0-0.5-0.224-0.5-0.5V32c0-0.276,0.224-0.5,0.5-0.5S27,31.724,27,32v9.5 C27,41.776,26.776,42,26.5,42z"/><path fill="#1f212b" d="M35.05,37.25c-0.083,0-0.166-0.021-0.243-0.063l-8.55-4.75c-0.241-0.135-0.328-0.438-0.194-0.681 c0.135-0.243,0.439-0.325,0.681-0.194l8.55,4.75c0.241,0.135,0.328,0.438,0.194,0.681C35.396,37.157,35.225,37.25,35.05,37.25z"/><path fill="#1f212b" d="M26.5 32.5c-.175 0-.346-.093-.438-.257-.134-.242-.047-.546.194-.681l8.55-4.75c.239-.13.545-.048.681.194.134.242.047.546-.194.681l-8.55 4.75C26.666 32.479 26.583 32.5 26.5 32.5zM26.519 27.134l-2.514-2.42c-.199-.191-.205-.508-.014-.707.193-.198.51-.203.707-.014l1.82 1.752 1.82-1.752c.198-.189.515-.185.707.014.191.199.186.516-.014.707L26.519 27.134z"/><g><path fill="#1f212b" d="M18.553,30.482c-0.223,0-0.426-0.149-0.484-0.375c-0.068-0.268,0.092-0.54,0.359-0.609l2.468-0.636 l-0.657-2.357c-0.074-0.266,0.081-0.541,0.348-0.615c0.266-0.076,0.541,0.081,0.615,0.348l0.931,3.34l-3.454,0.89 C18.636,30.478,18.594,30.482,18.553,30.482z"/></g><g><path fill="#1f212b" d="M20.72,38.129c-0.044,0-0.089-0.006-0.134-0.019c-0.267-0.074-0.422-0.35-0.348-0.615l0.657-2.357 l-2.468-0.636C18.16,34.433,18,34.16,18.068,33.893c0.069-0.267,0.339-0.428,0.609-0.359l3.454,0.89l-0.931,3.34 C21.14,37.984,20.938,38.129,20.72,38.129z"/></g><g><path fill="#1f212b" d="M28.686,40.146c-0.125,0-0.25-0.047-0.347-0.14l-1.82-1.752l-1.82,1.752 c-0.197,0.19-0.514,0.186-0.707-0.014c-0.191-0.199-0.186-0.516,0.014-0.707l2.514-2.42l2.514,2.42 c0.199,0.191,0.205,0.508,0.014,0.707C28.947,40.095,28.816,40.146,28.686,40.146z"/></g><g><path fill="#1f212b" d="M32.316,38.129c-0.219,0-0.42-0.145-0.481-0.366l-0.93-3.34l3.453-0.89 c0.271-0.068,0.54,0.093,0.609,0.359c0.068,0.268-0.092,0.54-0.359,0.609l-2.467,0.636l0.656,2.357 c0.074,0.266-0.081,0.541-0.348,0.615C32.405,38.123,32.36,38.129,32.316,38.129z"/></g><g><path fill="#1f212b" d="M34.483,30.482c-0.041,0-0.083-0.005-0.125-0.016l-3.453-0.89l0.93-3.34 c0.074-0.266,0.348-0.421,0.615-0.348c0.267,0.074,0.422,0.35,0.348,0.615l-0.656,2.357l2.467,0.636 c0.268,0.069,0.428,0.342,0.359,0.609C34.909,30.333,34.706,30.482,34.483,30.482z"/></g><g><path fill="#1f212b" d="M24.5,64.5c-0.276,0-0.5-0.224-0.5-0.5v-9.5c0-0.276,0.224-0.5,0.5-0.5s0.5,0.224,0.5,0.5V64 C25,64.276,24.776,64.5,24.5,64.5z"/><path fill="#1f212b" d="M24.5,64.5c-0.083,0-0.166-0.021-0.243-0.063l-8.55-4.75c-0.241-0.135-0.328-0.438-0.194-0.681 c0.136-0.242,0.44-0.326,0.681-0.194l8.55,4.75c0.241,0.135,0.328,0.438,0.194,0.681C24.846,64.407,24.675,64.5,24.5,64.5z"/><path fill="#1f212b" d="M15.95,69.25c-0.175,0-0.346-0.093-0.438-0.257c-0.134-0.242-0.047-0.546,0.194-0.681l8.55-4.75 c0.239-0.131,0.545-0.048,0.681,0.194c0.134,0.242,0.047,0.546-0.194,0.681l-8.55,4.75C16.116,69.229,16.033,69.25,15.95,69.25z"/><path fill="#1f212b" d="M24.5,74c-0.276,0-0.5-0.224-0.5-0.5V64c0-0.276,0.224-0.5,0.5-0.5S25,63.724,25,64v9.5 C25,73.776,24.776,74,24.5,74z"/><path fill="#1f212b" d="M33.05,69.25c-0.083,0-0.166-0.021-0.243-0.063l-8.55-4.75c-0.241-0.135-0.328-0.438-0.194-0.681 c0.136-0.242,0.44-0.326,0.681-0.194l8.55,4.75c0.241,0.135,0.328,0.438,0.194,0.681C33.396,69.157,33.225,69.25,33.05,69.25z"/><path fill="#1f212b" d="M24.5 64.5c-.175 0-.346-.093-.438-.257-.134-.242-.047-.546.194-.681l8.55-4.75c.24-.131.546-.048.681.194.134.242.047.546-.194.681l-8.55 4.75C24.666 64.479 24.583 64.5 24.5 64.5zM24.519 59.134l-2.514-2.42c-.199-.191-.205-.508-.014-.707.193-.197.51-.203.707-.014l1.82 1.752 1.82-1.752c.198-.189.515-.184.707.014.191.199.186.516-.014.707L24.519 59.134z"/><g><path fill="#1f212b" d="M16.553,62.482c-0.223,0-0.426-0.149-0.484-0.375c-0.068-0.268,0.092-0.54,0.359-0.609l2.468-0.636 l-0.657-2.357c-0.074-0.266,0.081-0.541,0.348-0.615c0.267-0.077,0.541,0.081,0.615,0.348l0.931,3.34l-3.454,0.89 C16.636,62.478,16.594,62.482,16.553,62.482z"/></g><g><path fill="#1f212b" d="M18.72,70.129c-0.044,0-0.089-0.006-0.134-0.019c-0.267-0.074-0.422-0.35-0.348-0.615l0.657-2.357 l-2.468-0.636C16.16,66.433,16,66.16,16.068,65.893c0.069-0.268,0.34-0.429,0.609-0.359l3.454,0.89l-0.931,3.34 C19.14,69.984,18.938,70.129,18.72,70.129z"/></g><g><path fill="#1f212b" d="M26.686,72.146c-0.125,0-0.25-0.047-0.347-0.14l-1.82-1.752l-1.82,1.752 c-0.197,0.19-0.514,0.185-0.707-0.014c-0.191-0.199-0.186-0.516,0.014-0.707l2.514-2.42l2.514,2.42 c0.199,0.191,0.205,0.508,0.014,0.707C26.947,72.095,26.816,72.146,26.686,72.146z"/></g><g><path fill="#1f212b" d="M30.316,70.129c-0.219,0-0.42-0.145-0.481-0.366l-0.93-3.34l3.453-0.89 c0.271-0.069,0.54,0.092,0.609,0.359c0.068,0.268-0.092,0.54-0.359,0.609l-2.467,0.636l0.656,2.357 c0.074,0.266-0.081,0.541-0.348,0.615C30.405,70.123,30.36,70.129,30.316,70.129z"/></g><g><path fill="#1f212b" d="M32.483,62.482c-0.041,0-0.083-0.005-0.125-0.016l-3.453-0.89l0.93-3.34 c0.074-0.266,0.349-0.422,0.615-0.348s0.422,0.35,0.348,0.615l-0.656,2.357l2.467,0.636c0.268,0.069,0.428,0.342,0.359,0.609 C32.909,62.333,32.706,62.482,32.483,62.482z"/></g></g><g><path fill="#1f212b" d="M53.5,80.5c-0.276,0-0.5-0.224-0.5-0.5v-9.5c0-0.276,0.224-0.5,0.5-0.5s0.5,0.224,0.5,0.5V80 C54,80.276,53.776,80.5,53.5,80.5z"/><path fill="#1f212b" d="M53.5,80.5c-0.083,0-0.166-0.021-0.243-0.063l-8.55-4.75c-0.241-0.135-0.328-0.438-0.194-0.681 c0.135-0.242,0.439-0.325,0.681-0.194l8.55,4.75c0.241,0.135,0.328,0.438,0.194,0.681C53.846,80.407,53.675,80.5,53.5,80.5z"/><path fill="#1f212b" d="M44.95,85.25c-0.175,0-0.346-0.093-0.438-0.257c-0.134-0.242-0.047-0.546,0.194-0.681l8.55-4.75 c0.239-0.13,0.546-0.048,0.681,0.194c0.134,0.242,0.047,0.546-0.194,0.681l-8.55,4.75C45.116,85.229,45.033,85.25,44.95,85.25z"/><path fill="#1f212b" d="M53.5,90c-0.276,0-0.5-0.224-0.5-0.5V80c0-0.276,0.224-0.5,0.5-0.5S54,79.724,54,80v9.5 C54,89.776,53.776,90,53.5,90z"/><path fill="#1f212b" d="M62.05,85.25c-0.083,0-0.166-0.021-0.243-0.063l-8.55-4.75c-0.241-0.135-0.328-0.438-0.194-0.681 c0.135-0.242,0.44-0.325,0.681-0.194l8.55,4.75c0.241,0.135,0.328,0.438,0.194,0.681C62.396,85.157,62.225,85.25,62.05,85.25z"/><path fill="#1f212b" d="M53.5 80.5c-.175 0-.346-.093-.438-.257-.134-.242-.047-.546.194-.681l8.55-4.75c.239-.13.545-.048.681.194.134.242.047.546-.194.681l-8.55 4.75C53.666 80.479 53.583 80.5 53.5 80.5zM53.519 75.134l-2.514-2.42c-.199-.191-.205-.508-.014-.707.193-.198.51-.203.707-.014l1.82 1.752 1.82-1.752c.198-.189.515-.185.707.014.191.199.186.516-.014.707L53.519 75.134z"/><g><path fill="#1f212b" d="M45.553,78.482c-0.223,0-0.426-0.149-0.484-0.375c-0.068-0.268,0.092-0.54,0.359-0.609l2.468-0.636 l-0.657-2.357c-0.074-0.266,0.081-0.541,0.348-0.615c0.269-0.076,0.541,0.081,0.615,0.348l0.931,3.34l-3.454,0.89 C45.636,78.478,45.594,78.482,45.553,78.482z"/></g><g><path fill="#1f212b" d="M47.72,86.129c-0.044,0-0.089-0.006-0.134-0.019c-0.267-0.074-0.422-0.35-0.348-0.615l0.657-2.357 l-2.468-0.636C45.16,82.433,45,82.16,45.068,81.893c0.069-0.268,0.34-0.43,0.609-0.359l3.454,0.89l-0.931,3.34 C48.14,85.984,47.938,86.129,47.72,86.129z"/></g><g><path fill="#1f212b" d="M55.686,88.146c-0.125,0-0.25-0.047-0.347-0.14l-1.82-1.752l-1.82,1.752 c-0.197,0.19-0.514,0.186-0.707-0.014c-0.191-0.199-0.186-0.516,0.014-0.707l2.514-2.42l2.514,2.42 c0.199,0.191,0.205,0.508,0.014,0.707C55.947,88.095,55.816,88.146,55.686,88.146z"/></g><g><path fill="#1f212b" d="M59.316,86.129c-0.219,0-0.42-0.145-0.481-0.366l-0.93-3.34l3.453-0.89 c0.27-0.07,0.54,0.092,0.609,0.359c0.068,0.268-0.092,0.54-0.359,0.609l-2.467,0.636l0.656,2.357 c0.074,0.266-0.081,0.541-0.348,0.615C59.405,86.123,59.36,86.129,59.316,86.129z"/></g><g><path fill="#1f212b" d="M61.483,78.482c-0.041,0-0.083-0.005-0.125-0.016l-3.453-0.89l0.93-3.34 c0.074-0.266,0.348-0.421,0.615-0.348c0.267,0.074,0.422,0.35,0.348,0.615l-0.656,2.357l2.467,0.636 c0.268,0.069,0.428,0.342,0.359,0.609C61.909,78.333,61.706,78.482,61.483,78.482z"/></g></g><g><path fill="#1f212b" d="M79.5,69c-0.276,0-0.5-0.224-0.5-0.5v-5c0-0.276,0.224-0.5,0.5-0.5s0.5,0.224,0.5,0.5v5 C80,68.776,79.776,69,79.5,69z"/><path fill="#1f212b" d="M79.5,69c-0.085,0-0.171-0.021-0.25-0.067l-4.33-2.5c-0.239-0.138-0.321-0.443-0.183-0.683 c0.138-0.239,0.444-0.321,0.683-0.183l4.33,2.5c0.239,0.138,0.321,0.443,0.183,0.683C79.841,68.91,79.672,69,79.5,69z"/><path fill="#1f212b" d="M75.17,71.5c-0.172,0-0.341-0.09-0.433-0.25c-0.139-0.239-0.057-0.545,0.183-0.683l4.33-2.5 c0.239-0.14,0.545-0.057,0.683,0.183c0.139,0.239,0.057,0.545-0.183,0.683l-4.33,2.5C75.341,71.479,75.255,71.5,75.17,71.5z"/><path fill="#1f212b" d="M79.5,74c-0.276,0-0.5-0.224-0.5-0.5v-5c0-0.276,0.224-0.5,0.5-0.5s0.5,0.224,0.5,0.5v5 C80,73.776,79.776,74,79.5,74z"/><path fill="#1f212b" d="M83.83,71.5c-0.085,0-0.171-0.021-0.25-0.067l-4.33-2.5c-0.239-0.138-0.321-0.443-0.183-0.683 c0.137-0.239,0.443-0.32,0.683-0.183l4.33,2.5c0.239,0.138,0.321,0.443,0.183,0.683C84.171,71.41,84.002,71.5,83.83,71.5z"/><path fill="#1f212b" d="M79.5,69c-0.172,0-0.341-0.09-0.433-0.25c-0.139-0.239-0.057-0.545,0.183-0.683l4.33-2.5 c0.238-0.14,0.545-0.058,0.683,0.183c0.139,0.239,0.057,0.545-0.183,0.683l-4.33,2.5C79.671,68.979,79.585,69,79.5,69z"/></g><g><path fill="#1f212b" d="M63 22.499c-.553 0-1-.447-1-1V11c0-.553.447-1 1-1s1 .447 1 1v10.499C64 22.052 63.553 22.499 63 22.499zM52.605 28.499c-.17 0-.342-.043-.499-.134l-9.092-5.249c-.479-.276-.643-.888-.366-1.366s.889-.644 1.366-.366l9.092 5.249c.479.276.643.888.366 1.366C53.287 28.319 52.951 28.499 52.605 28.499zM43.516 45.75c-.346 0-.682-.179-.867-.5-.276-.479-.112-1.09.366-1.366l9.092-5.249c.477-.276 1.089-.113 1.366.366.276.479.112 1.09-.366 1.366l-9.092 5.249C43.857 45.707 43.686 45.75 43.516 45.75zM63 57c-.553 0-1-.447-1-1V45.501c0-.553.447-1 1-1s1 .447 1 1V56C64 56.553 63.553 57 63 57zM82.484 45.75c-.17 0-.342-.043-.499-.134l-9.092-5.249c-.479-.276-.643-.888-.366-1.366s.888-.643 1.366-.366l9.092 5.249c.479.276.643.888.366 1.366C83.166 45.57 82.83 45.75 82.484 45.75zM73.395 28.499c-.346 0-.682-.179-.867-.5-.276-.479-.112-1.09.366-1.366l9.092-5.249c.476-.277 1.089-.113 1.366.366.276.479.112 1.09-.366 1.366l-9.092 5.249C73.736 28.456 73.564 28.499 73.395 28.499z"/><path fill="#78cdd4" d="M74.297 27.004L74.305 27.004 67.133 26.354 63.003 20.507 63.008 20.5 58.857 26.364 51.71 27.004 51.706 26.996 54.727 33.51 51.71 39.996 51.702 39.996 58.874 40.646 63.003 46.493 62.999 46.5 67.15 40.636 74.297 39.996 74.301 40.004 71.28 33.49z"/><path fill="#1f212b" d="M62.999,46.995c-0.1,0-0.2-0.029-0.287-0.091c-0.067-0.049-0.12-0.11-0.156-0.179l-3.957-5.603 l-6.941-0.629c-0.267-0.024-0.467-0.254-0.454-0.521c0.004-0.098,0.036-0.187,0.088-0.262l2.885-6.202l-2.923-6.304 c-0.115-0.247-0.01-0.542,0.236-0.66c0.083-0.041,0.17-0.054,0.263-0.048l6.83-0.612l4.018-5.675 c0.155-0.219,0.453-0.275,0.677-0.133c0.082,0.053,0.144,0.125,0.183,0.207l3.949,5.592l6.942,0.629 c0.267,0.024,0.467,0.254,0.454,0.521c-0.004,0.1-0.037,0.19-0.091,0.266l-2.883,6.198l2.923,6.304 c0.115,0.247,0.01,0.542-0.236,0.66c-0.083,0.041-0.168,0.054-0.263,0.048l-6.83,0.612l-4.01,5.663 c-0.001,0.002-0.003,0.004-0.004,0.007c-0.001,0.001-0.002,0.002-0.002,0.003l-0.002,0.002 C63.309,46.923,63.154,46.995,62.999,46.995z M52.463,39.563l6.456,0.585c0.146,0.014,0.279,0.09,0.363,0.21l3.723,5.27 l3.737-5.279c0.085-0.119,0.218-0.196,0.363-0.209l6.438-0.577L70.826,33.7c-0.063-0.133-0.063-0.287,0-0.421l2.718-5.843 l-6.456-0.584c-0.146-0.014-0.279-0.09-0.363-0.21l-3.722-5.271l-3.738,5.28c-0.085,0.119-0.218,0.196-0.363,0.209l-6.438,0.577 l2.718,5.861c0.063,0.133,0.063,0.287,0,0.421L52.463,39.563z"/><path fill="#78cdd4" d="M69.085 30.002L69.089 30.002 65.227 29.652 63.003 26.504 63.006 26.5 60.771 29.657 56.922 30.002 56.92 29.998 58.547 33.505 56.922 36.998 56.918 36.998 60.78 37.348 63.003 40.496 63.001 40.5 65.236 37.343 69.085 36.998 69.087 37.002 67.46 33.495z"/><path fill="#1f212b" d="M63.001,40.997c-0.103,0-0.205-0.03-0.293-0.095c-0.061-0.044-0.108-0.1-0.143-0.161l-2.061-2.916 l-3.632-0.329c-0.267-0.024-0.467-0.254-0.454-0.521c0.004-0.091,0.032-0.176,0.078-0.247l1.498-3.224l-1.528-3.297 c-0.108-0.231-0.023-0.508,0.196-0.639c0.087-0.052,0.194-0.073,0.276-0.071l3.557-0.318l2.102-2.969 c0.15-0.214,0.441-0.273,0.665-0.14c0.081,0.048,0.143,0.115,0.185,0.193l2.056,2.91l3.631,0.329 c0.267,0.024,0.467,0.254,0.454,0.521c-0.004,0.089-0.03,0.171-0.074,0.241l-1.502,3.229l1.528,3.297 c0.115,0.247,0.01,0.542-0.236,0.66c-0.075,0.038-0.155,0.051-0.236,0.05l-3.557,0.318l-2.092,2.955 c-0.005,0.007-0.01,0.014-0.015,0.021C63.306,40.928,63.154,40.997,63.001,40.997z M57.676,36.564l3.149,0.285 c0.146,0.014,0.279,0.09,0.363,0.21l1.815,2.57l1.824-2.576c0.085-0.119,0.218-0.196,0.363-0.209l3.141-0.281l-1.325-2.858 c-0.063-0.133-0.063-0.287,0-0.421l1.325-2.849l-3.149-0.285c-0.146-0.014-0.279-0.09-0.363-0.21l-1.816-2.571l-1.824,2.577 c-0.085,0.119-0.218,0.196-0.363,0.209l-3.141,0.281L59,33.295c0.063,0.133,0.063,0.287,0,0.421L57.676,36.564z"/><path fill="#78cdd4" d="M64.741 32.501L64.742 32.501 63.639 32.401 63.003 31.501 63.004 31.5 62.366 32.402 61.266 32.501 61.265 32.499 61.73 33.501 61.266 34.499 61.265 34.499 62.368 34.599 63.003 35.499 63.003 35.5 63.641 34.598 64.741 34.499 64.742 34.501 64.277 33.498z"/><path fill="#1f212b" d="M63.003 36L63.003 36c-.163 0-.315-.079-.408-.212l-.502-.712-.873-.079c-.163-.015-.308-.107-.389-.249s-.088-.313-.02-.461l.367-.786-.367-.792c-.068-.147-.061-.319.021-.46.081-.142.227-.233.389-.248l.869-.076.505-.714C62.689 31.079 62.842 31 63.004 31l0 0c.163 0 .315.079.408.212l.502.712.873.079c.162.015.307.107.388.249.081.141.088.313.02.46l-.366.787.367.792c.068.147.061.319-.021.46-.081.142-.227.233-.389.248l-.869.076-.505.714C63.317 35.921 63.165 36 63.003 36zM62.02 34.065l.395.036c.146.014.278.09.362.209l.228.322.229-.324c.085-.119.218-.196.363-.209l.392-.035-.165-.355c-.063-.134-.063-.288 0-.422l.164-.353-.395-.036c-.146-.014-.278-.09-.362-.21l-.228-.321-.229.324c-.085.119-.218.196-.363.209l-.392.035.165.355c.063.134.063.288 0 .422L62.02 34.065zM63 16.598l-3.789-3.775c-.196-.195-.196-.512-.002-.707.195-.197.512-.195.707-.002L63 15.186l3.084-3.072c.195-.193.512-.195.707.002.194.195.194.512-.002.707L63 16.598z"/><path fill="#1f212b" d="M63 21.488l-5.753-5.731c-.196-.195-.196-.512-.002-.707.195-.197.512-.195.707-.002L63 20.076l5.048-5.028c.195-.193.512-.195.707.002.194.195.194.512-.002.707L63 21.488zM43 26.449c-.222 0-.424-.147-.483-.371-.071-.267.088-.541.354-.612l4.21-1.124-1.127-4.193c-.072-.267.086-.541.353-.612.27-.071.542.086.612.353l1.389 5.16-5.179 1.384C43.086 26.443 43.042 26.449 43 26.449z"/><path fill="#1f212b" d="M44.569 29.61c-.222 0-.424-.147-.483-.371-.071-.267.088-.541.354-.612l6.893-1.839-1.846-6.867c-.072-.267.086-.541.353-.612.271-.071.541.085.612.353l2.107 7.834-7.861 2.099C44.655 29.604 44.611 29.61 44.569 29.61zM46.437 47.481c-.043 0-.086-.006-.13-.018-.267-.071-.425-.346-.353-.612l1.127-4.193-4.21-1.124c-.267-.071-.426-.346-.354-.612.07-.266.342-.422.612-.354l5.179 1.384-1.389 5.16C46.859 47.334 46.657 47.481 46.437 47.481z"/><path fill="#1f212b" d="M49.97 47.709c-.043 0-.086-.006-.13-.018-.267-.071-.425-.346-.353-.612l1.846-6.867-6.893-1.839c-.267-.071-.426-.346-.354-.612.07-.267.342-.422.612-.354l7.861 2.099-2.107 7.834C50.393 47.562 50.19 47.709 49.97 47.709zM66.437 55.032c-.128 0-.255-.049-.353-.146L63 51.814l-3.084 3.072c-.195.193-.512.195-.707-.002-.194-.195-.194-.512.002-.707L63 50.402l3.789 3.775c.196.195.196.512.002.707C66.693 54.983 66.564 55.032 66.437 55.032z"/><path fill="#1f212b" d="M68.4 52.098c-.128 0-.255-.049-.353-.146L63 46.924l-5.048 5.028c-.195.193-.512.195-.707-.002-.194-.195-.194-.512.002-.707L63 45.512l5.753 5.731c.196.195.196.512.002.707C68.657 52.049 68.528 52.098 68.4 52.098zM79.563 47.481c-.221 0-.423-.146-.482-.37l-1.389-5.16 5.179-1.384c.271-.067.541.089.612.354.071.267-.088.541-.354.612l-4.21 1.124 1.127 4.193c.072.267-.086.541-.353.612C79.649 47.476 79.606 47.481 79.563 47.481z"/><path fill="#1f212b" d="M76.03 47.709c-.221 0-.423-.146-.482-.37l-2.107-7.834 7.861-2.099c.271-.067.541.088.612.354s-.088.541-.354.612l-6.893 1.839 1.846 6.867c.072.267-.086.541-.353.612C76.116 47.703 76.073 47.709 76.03 47.709zM83 26.449c-.042 0-.086-.006-.129-.017l-5.179-1.384 1.389-5.16c.071-.266.344-.423.612-.353.267.071.425.346.353.612l-1.127 4.193 4.21 1.124c.267.071.426.346.354.612C83.424 26.302 83.222 26.449 83 26.449z"/><path fill="#1f212b" d="M81.431,29.61c-0.042,0-0.086-0.006-0.129-0.017l-7.861-2.099l2.107-7.834 c0.071-0.266,0.345-0.423,0.612-0.353c0.267,0.071,0.425,0.346,0.353,0.612l-1.846,6.867l6.893,1.839 c0.267,0.071,0.426,0.346,0.354,0.612C81.854,29.463,81.652,29.61,81.431,29.61z"/></g></svg>