<svg xmlns="http://www.w3.org/2000/svg" xmlns:xlink="http://www.w3.org/1999/xlink" viewBox="0 0 100 100"><path fill="#a2a2cc" d="M77.643,40.494c-0.837,0-1.645,0.128-2.417,0.348c-0.506-6.56-5.677-11.72-11.994-11.72c-3.642,0-6.898,1.721-9.107,4.43c-2.696-5.768-8.289-9.743-14.771-9.743c-8.932,0-16.188,7.534-16.468,16.934c-0.662-0.159-1.349-0.25-2.057-0.25c-5.139,0-9.304,4.418-9.304,9.867s4.166,9.867,9.304,9.867c0.598,0,56.215,0,56.812,0c5.139,0,9.304-4.418,9.304-9.867S82.782,40.494,77.643,40.494z"/><path fill="#fdf5a9" d="M53.613,68.304c-0.173-0.045-0.368-0.028-0.55-0.012c-2.237,0.198-4.474,0.401-6.711,0.602c-0.158,0.014-0.316,0.029-0.474,0.043l-0.055-0.11c0.126-0.129,0.254-0.255,0.376-0.387c2.17-2.333,6.202-6.893,7.731-8.713h-8.436c-0.035,0.039-0.072,0.073-0.105,0.119C44.687,60.819,35.2,73.417,35.2,73.417c-0.129,0.173-0.226,0.499-0.148,0.661c0.081,0.168,0.393,0.307,0.608,0.313c0.893,0.024,3.899-0.017,4.597-0.015c-0.171,0.235-0.266,0.372-0.368,0.504c-2.584,3.359-8.031,10.902-7.914,11.038c0.115,0.133,21.041-16.025,21.041-16.025s0.567-0.428,0.827-0.667C54.213,68.889,54.098,68.43,53.613,68.304z"/><path fill="#1f212b" d="M31.86,86.663c-0.176,0-0.276-0.115-0.42-0.282c-0.45-0.521-0.45-0.521,2.905-5.187c1.57-2.183,3.264-4.484,4.49-6.1c-1.156,0.011-2.615,0.021-3.194,0.005c-0.43-0.01-1.008-0.262-1.226-0.711c-0.238-0.495,0.001-1.106,0.22-1.396c0.095-0.126,9.49-12.605,10.18-13.56c0.044-0.061,0.089-0.111,0.136-0.161c0.134-0.141,0.349-0.252,0.543-0.252h8.436c0.275,0,0.526,0.16,0.643,0.409c0.116,0.25,0.077,0.545-0.1,0.756c-1.352,1.609-4.703,5.41-6.978,7.896c1.834-0.166,3.669-0.331,5.505-0.494c0.207-0.018,0.494-0.046,0.791,0.032h0c0.483,0.125,0.837,0.461,0.945,0.897c0.108,0.436-0.046,0.896-0.414,1.232c-0.277,0.254-0.879,0.71-0.879,0.71l0,0c0,0-5.229,4.038-10.473,8.059c-2.625,2.013-5.252,4.021-7.231,5.518C33.074,86.052,32.266,86.663,31.86,86.663z M40.206,73.668c0.335,0.003,0.556,0.137,0.684,0.389c0.12,0.238,0.097,0.523-0.06,0.738l-0.376,0.515c-1.507,1.959-3.877,5.193-5.617,7.632c4.309-3.261,12.078-9.232,17.746-13.608C52.59,69.328,52.79,69.177,53,69.01c-2.196,0.195-4.391,0.394-6.584,0.592l-0.473,0.043c-0.298,0.022-0.569-0.128-0.699-0.389l-0.055-0.11c-0.135-0.271-0.084-0.598,0.128-0.813l0.103-0.104c0.087-0.089,0.175-0.178,0.26-0.269c1.81-1.946,4.856-5.375,6.712-7.521h-6.546c-1.381,1.852-8.808,11.717-9.946,13.229c0.761,0.027,2.053,0.018,3.06,0.01C39.499,73.672,39.958,73.668,40.206,73.668z M53.436,68.986c0.006,0.004,0.011,0.008,0.016,0.01l0.161-0.691L53.436,68.986z"/><path fill="#1f212b" d="M37.614,61.228H20.831c-5.682,0-10.305-4.875-10.305-10.867c0-6.383,5.279-11.54,11.429-10.799c0.827-9.483,8.271-16.753,17.4-16.753c6.221,0,11.849,3.415,15.001,9.007c2.404-2.363,5.567-3.693,8.876-3.693c6.372,0,11.821,4.966,12.856,11.501c0.521-0.086,1.041-0.13,1.554-0.13c5.682,0,10.304,4.875,10.304,10.867c0,2.577-0.871,5.076-2.451,7.037c-0.346,0.43-0.977,0.498-1.406,0.15c-0.43-0.347-0.498-0.976-0.151-1.406c1.294-1.606,2.008-3.659,2.008-5.781c0-4.89-3.725-8.867-8.304-8.867c-0.702,0-1.422,0.104-2.142,0.311c-0.29,0.08-0.599,0.029-0.846-0.141c-0.247-0.172-0.403-0.445-0.426-0.744c-0.467-6.055-5.297-10.797-10.997-10.797c-3.19,0-6.227,1.48-8.332,4.062c-0.217,0.267-0.557,0.401-0.898,0.36c-0.341-0.042-0.637-0.257-0.783-0.568c-2.644-5.654-7.956-9.167-13.865-9.167c-8.407,0-15.201,7.013-15.468,15.965c-0.009,0.301-0.153,0.581-0.392,0.765c-0.239,0.183-0.548,0.249-0.841,0.178c-5.335-1.281-10.128,3.119-10.128,8.645c0,4.89,3.726,8.867,8.305,8.867h16.783c0.552,0,1,0.447,1,1S38.166,61.228,37.614,61.228z"/><path fill="#1f212b" d="M57.114 56.228h-5c-.276 0-.5-.224-.5-.5s.224-.5.5-.5h5c.276 0 .5.224.5.5S57.391 56.228 57.114 56.228zM50.114 56.228h-1c-.276 0-.5-.224-.5-.5s.224-.5.5-.5h1c.276 0 .5.224.5.5S50.391 56.228 50.114 56.228zM47.114 56.228h-27c-.276 0-.5-.224-.5-.5s.224-.5.5-.5h27c.276 0 .5.224.5.5S47.391 56.228 47.114 56.228z"/><path fill="#fdf5a9" d="M78.451,59.304c-0.173-0.045-0.368-0.028-0.55-0.012c-2.237,0.198-4.474,0.401-6.711,0.602c-0.158,0.014-0.316,0.029-0.474,0.043l-0.055-0.11c0.126-0.129,0.254-0.255,0.376-0.387c2.17-2.333,6.202-6.893,7.731-8.713h-8.436c-0.035,0.039-0.072,0.073-0.105,0.119c-0.702,0.971-10.189,13.57-10.189,13.57c-0.129,0.173-0.226,0.499-0.148,0.661c0.081,0.168,0.393,0.307,0.608,0.313c0.893,0.024,3.899-0.017,4.597-0.015c-0.171,0.235-0.266,0.372-0.368,0.504c-2.584,3.359-8.031,10.902-7.914,11.038c0.115,0.133,21.041-16.025,21.041-16.025s0.567-0.428,0.827-0.667C79.051,59.889,78.936,59.43,78.451,59.304z"/><path fill="#1f212b" d="M56.699,77.663c-0.176,0-0.276-0.115-0.419-0.28c-0.451-0.523-0.451-0.523,2.904-5.188c1.57-2.183,3.264-4.484,4.49-6.1c-1.156,0.011-2.615,0.021-3.194,0.005c-0.431-0.01-1.009-0.263-1.227-0.713c-0.237-0.492,0-1.104,0.219-1.394c0.096-0.127,9.491-12.606,10.181-13.561c0.043-0.06,0.087-0.109,0.133-0.157c0.134-0.142,0.352-0.256,0.546-0.256h8.436c0.275,0,0.526,0.16,0.643,0.409c0.116,0.25,0.077,0.545-0.1,0.756c-1.355,1.613-4.707,5.413-6.977,7.896c1.861-0.169,3.683-0.332,5.505-0.494c0.209-0.018,0.496-0.045,0.791,0.032c0.483,0.125,0.837,0.461,0.945,0.897c0.108,0.436-0.046,0.896-0.414,1.232c-0.277,0.254-0.878,0.71-0.878,0.71l0,0c0,0-5.229,4.038-10.473,8.059c-2.625,2.013-5.252,4.021-7.231,5.518C57.912,77.052,57.104,77.663,56.699,77.663z M65.044,64.668c0.336,0.007,0.556,0.137,0.684,0.389c0.12,0.238,0.097,0.523-0.06,0.738l-0.377,0.517c-1.507,1.958-3.877,5.192-5.616,7.63c4.309-3.26,12.078-9.231,17.747-13.608c0.006-0.005,0.207-0.156,0.417-0.323c-2.172,0.192-4.341,0.389-6.511,0.585l-0.526,0.048c-0.295,0.025-0.589-0.126-0.719-0.387l-0.055-0.11c-0.135-0.271-0.084-0.598,0.128-0.813l0.096-0.098c0.09-0.091,0.18-0.182,0.267-0.275c1.807-1.942,4.854-5.373,6.712-7.521h-6.545c-1.39,1.863-8.809,11.718-9.946,13.229c0.76,0.027,2.052,0.018,3.06,0.01C64.337,64.672,64.796,64.668,65.044,64.668z M78.29,59.996h0.01H78.29z"/></svg>