<svg xmlns="http://www.w3.org/2000/svg" xmlns:xlink="http://www.w3.org/1999/xlink" viewBox="0 0 100 100"><path fill="#8eb4da" d="M76.003,42.529c-0.878,0-1.725,0.134-2.535,0.365c-0.531-6.881-5.955-12.293-12.58-12.293c-3.82,0-7.235,1.805-9.552,4.646c-2.828-6.05-8.694-10.219-15.493-10.219c-9.369,0-16.979,7.902-17.273,17.762c-0.695-0.166-1.415-0.262-2.157-0.262c-5.39,0-9.759,4.634-9.759,10.349s4.369,10.349,9.759,10.349c0.627,0,58.963,0,59.59,0c5.39,0,9.759-4.634,9.759-10.349S81.393,42.529,76.003,42.529z"/><path fill="#1f212b" d="M24.307,64.228h-7.894c-5.933,0-10.759-5.092-10.759-11.35c0-6.684,5.529-12.077,11.983-11.272c0.844-9.946,8.641-17.577,18.207-17.577c6.528,0,12.432,3.596,15.723,9.479c2.518-2.498,5.842-3.905,9.321-3.905c6.675,0,12.381,5.216,13.444,12.071c0.561-0.097,1.12-0.145,1.671-0.145c5.933,0,10.759,5.092,10.759,11.35c0,1.555-0.293,3.062-0.871,4.479c-0.209,0.511-0.793,0.757-1.304,0.548c-0.511-0.208-0.757-0.792-0.548-1.304c0.479-1.177,0.723-2.43,0.723-3.724c0-5.155-3.929-9.35-8.759-9.35c-0.738,0-1.499,0.11-2.261,0.327c-0.29,0.081-0.599,0.03-0.845-0.142c-0.247-0.171-0.403-0.444-0.426-0.743c-0.492-6.375-5.58-11.369-11.583-11.369c-3.361,0-6.561,1.56-8.777,4.278c-0.217,0.267-0.557,0.401-0.898,0.36c-0.341-0.042-0.637-0.257-0.783-0.568c-2.78-5.948-8.37-9.644-14.587-9.644c-8.845,0-15.993,7.376-16.273,16.793c-0.009,0.301-0.153,0.581-0.392,0.765c-0.239,0.183-0.547,0.249-0.841,0.178c-5.641-1.36-10.683,3.289-10.683,9.114c0,5.155,3.929,9.35,8.759,9.35h7.894c0.552,0,1,0.447,1,1S24.859,64.228,24.307,64.228z"/><path fill="#1f212b" d="M54.807 58.228h-5c-.276 0-.5-.224-.5-.5s.224-.5.5-.5h5c.276 0 .5.224.5.5S55.083 58.228 54.807 58.228zM47.807 58.228h-2c-.276 0-.5-.224-.5-.5s.224-.5.5-.5h2c.276 0 .5.224.5.5S48.083 58.228 47.807 58.228zM43.807 58.228h-28c-.276 0-.5-.224-.5-.5s.224-.5.5-.5h28c.276 0 .5.224.5.5S44.083 58.228 43.807 58.228zM56.842 78.58c-1.369 0-2.665-.597-3.554-1.636-.359-.42-.31-1.051.11-1.41.419-.358 1.051-.309 1.41.109.509.596 1.25.937 2.034.937.85 0 1.657-.409 2.161-1.096.52-.708.653-1.582.377-2.463-.331-1.056-1.407-1.793-2.615-1.793H31.307c-.552 0-1-.447-1-1s.448-1 1-1h25.458c2.073 0 3.933 1.313 4.523 3.193.465 1.482.22 3.029-.673 4.246C59.736 77.865 58.326 78.58 56.842 78.58z"/><path fill="#1f212b" d="M63.769 64.228H38.307c-.552 0-1-.447-1-1s.448-1 1-1h25.461c.819 0 1.583-.368 2.095-1.01.52-.651.7-1.472.509-2.311-.214-.94-.988-1.723-1.924-1.949-1.031-.245-2.044.071-2.713.854-.359.421-.99.469-1.41.11-.42-.358-.469-.99-.11-1.409 1.151-1.346 2.954-1.921 4.703-1.498 1.683.405 3.02 1.759 3.405 3.447.325 1.424-.002 2.883-.896 4.003C66.534 63.586 65.2 64.228 63.769 64.228zM75.807 67.228h-2c-.276 0-.5-.224-.5-.5s.224-.5.5-.5h2c.276 0 .5.224.5.5S76.083 67.228 75.807 67.228zM70.807 67.228h-28c-.276 0-.5-.224-.5-.5s.224-.5.5-.5h28c.276 0 .5.224.5.5S71.083 67.228 70.807 67.228z"/></svg>